<svg width="47" height="41" viewBox="0 0 47 41" fill="none" xmlns="http://www.w3.org/2000/svg">
<path d="M5.875 20.5C5.875 20.9531 6.08132 21.3876 6.44858 21.708C6.81584 22.0283 7.31395 22.2083 7.83333 22.2083H19.5833C20.1027 22.2083 20.6008 22.0283 20.9681 21.708C21.3353 21.3876 21.5417 20.9531 21.5417 20.5V6.83333C21.5417 6.38026 21.3353 5.94573 20.9681 5.62536C20.6008 5.30498 20.1027 5.125 19.5833 5.125H7.83333C7.31395 5.125 6.81584 5.30498 6.44858 5.62536C6.08132 5.94573 5.875 6.38026 5.875 6.83333V20.5ZM5.875 34.1667C5.875 34.6197 6.08132 35.0543 6.44858 35.3746C6.81584 35.695 7.31395 35.875 7.83333 35.875H19.5833C20.1027 35.875 20.6008 35.695 20.9681 35.3746C21.3353 35.0543 21.5417 34.6197 21.5417 34.1667V27.3333C21.5417 26.8803 21.3353 26.4457 20.9681 26.1254C20.6008 25.805 20.1027 25.625 19.5833 25.625H7.83333C7.31395 25.625 6.81584 25.805 6.44858 26.1254C6.08132 26.4457 5.875 26.8803 5.875 27.3333V34.1667ZM25.4583 34.1667C25.4583 34.6197 25.6647 35.0543 26.0319 35.3746C26.3992 35.695 26.8973 35.875 27.4167 35.875H39.1667C39.686 35.875 40.1842 35.695 40.5514 35.3746C40.9187 35.0543 41.125 34.6197 41.125 34.1667V20.5C41.125 20.0469 40.9187 19.6124 40.5514 19.292C40.1842 18.9717 39.686 18.7917 39.1667 18.7917H27.4167C26.8973 18.7917 26.3992 18.9717 26.0319 19.292C25.6647 19.6124 25.4583 20.0469 25.4583 20.5V34.1667ZM27.4167 5.125C26.8973 5.125 26.3992 5.30498 26.0319 5.62536C25.6647 5.94573 25.4583 6.38026 25.4583 6.83333V13.6667C25.4583 14.1197 25.6647 14.5543 26.0319 14.8746C26.3992 15.195 26.8973 15.375 27.4167 15.375H39.1667C39.686 15.375 40.1842 15.195 40.5514 14.8746C40.9187 14.5543 41.125 14.1197 41.125 13.6667V6.83333C41.125 6.38026 40.9187 5.94573 40.5514 5.62536C40.1842 5.30498 39.686 5.125 39.1667 5.125H27.4167Z" fill="#307730"/>
</svg>
