<svg width="124" height="50" viewBox="0 0 124 50" fill="none" xmlns="http://www.w3.org/2000/svg">
<g clip-path="url(#clip0_6_563)">
<rect x="0.242653" y="6.79609" width="36.4078" height="36.4078" rx="18.2039" fill="#307730"/>
<path d="M27.3191 26.6298C27.3191 27.9179 27.0613 29.0262 26.5733 29.8354C25.9469 30.8749 24.9732 31.4248 23.7578 31.4248C21.438 31.4248 19.8784 28.5145 18.2278 25.4336C17.0285 23.1956 15.5401 20.4107 14.3163 20.4107C13.7266 20.4107 13.0038 21.1274 12.4301 22.2808C11.7739 23.6377 11.4255 25.1227 11.4098 26.6298C11.4098 27.5706 11.5811 28.3722 11.8916 28.8877C12.18 29.3665 12.5754 29.5891 13.1353 29.5891C14.187 29.5891 15.4781 27.371 15.9026 26.6451C16.0252 26.4348 16.2264 26.2817 16.4619 26.2197C16.6973 26.1577 16.9478 26.1917 17.1582 26.3143C17.3685 26.4369 17.5215 26.6381 17.5836 26.8736C17.6456 27.109 17.6116 27.3595 17.489 27.5699C16.8075 28.7386 16.2246 29.5585 15.6533 30.1536C14.8326 31.0087 14.0103 31.4248 13.1353 31.4248C11.92 31.4248 10.9463 30.8749 10.3198 29.8354C9.83186 29.0262 9.5741 27.9179 9.5741 26.6298C9.5741 23.2667 11.3777 18.575 14.3163 18.575C16.6361 18.575 18.1957 21.4853 19.8463 24.5662C21.0471 26.8042 22.5363 29.5891 23.7578 29.5891C24.3177 29.5891 24.7131 29.3665 25.0015 28.8877C25.312 28.3722 25.4834 27.5706 25.4834 26.6298C25.4679 25.1228 25.1197 23.6377 24.4638 22.2808C23.8902 21.1274 23.1673 20.4107 22.5769 20.4107C22.1394 20.4107 21.6124 20.7931 21.0097 21.545C20.8575 21.7351 20.6361 21.8569 20.3941 21.8837C20.1521 21.9106 19.9094 21.8402 19.7193 21.688C19.5292 21.5359 19.4074 21.3145 19.3806 21.0725C19.3537 20.8305 19.4241 20.5878 19.5763 20.3977C20.5591 19.1716 21.5405 18.575 22.5769 18.575C23.9269 18.575 25.1774 19.6007 26.1067 21.4631C26.8863 23.0751 27.3002 24.8394 27.3191 26.6298Z" fill="white"/>
<path d="M58.0392 35.3222V15.8247H61.0474V35.3222H58.0392ZM45.3101 35.3222V15.8247H48.3183V35.3222H45.3101ZM46.6192 27.0497V24.1529H59.3762V27.0497H46.6192Z" fill="#373541"/>
<path d="M66.4995 35.3222V15.8247H74.7999C75.914 15.8247 76.9353 16.1032 77.8638 16.6603C78.8108 17.1988 79.5628 17.9416 80.1199 18.8886C80.677 19.817 80.9555 20.8662 80.9555 22.036C80.9555 23.0945 80.677 24.0786 80.1199 24.9885C79.5628 25.8984 78.8201 26.6319 77.8916 27.189C76.9632 27.7275 75.9326 27.9967 74.7999 27.9967H69.5077V35.3222H66.4995ZM78.0866 35.3222L73.1287 26.5205L76.2204 25.8241L81.7354 35.3501L78.0866 35.3222ZM69.5077 25.0999H75.0784C75.6169 25.0999 76.0997 24.97 76.5268 24.71C76.9539 24.4315 77.2881 24.0601 77.5295 23.5958C77.7709 23.113 77.8916 22.5838 77.8916 22.0082C77.8916 21.3583 77.7338 20.7919 77.4181 20.3091C77.121 19.8078 76.6939 19.4178 76.1369 19.1393C75.5984 18.8607 74.9856 18.7215 74.2985 18.7215H69.5077V25.0999Z" fill="#373541"/>
<path d="M85.8665 35.3222V15.8247H88.8189L95.9216 27.3839L94.5011 27.3561L101.687 15.8247H104.473V35.3222H101.464V27.3282C101.464 25.657 101.502 24.1529 101.576 22.8159C101.669 21.479 101.817 20.1513 102.022 18.8329L102.411 19.8635L96.033 29.7236H94.1947L88.0112 19.9749L88.3176 18.8329C88.5218 20.077 88.6611 21.3583 88.7354 22.6767C88.8282 23.9765 88.8746 25.527 88.8746 27.3282V35.3222H85.8665Z" fill="#373541"/>
<path d="M115.955 35.6007C114.897 35.6007 113.913 35.4615 113.003 35.1829C112.112 34.9044 111.295 34.4866 110.552 33.9295C109.828 33.3539 109.178 32.6483 108.602 31.8127L110.663 29.4451C111.573 30.7449 112.446 31.6455 113.282 32.1469C114.117 32.6483 115.111 32.8989 116.262 32.8989C116.968 32.8989 117.608 32.7875 118.184 32.5647C118.759 32.3419 119.214 32.0355 119.549 31.6455C119.883 31.2556 120.05 30.8099 120.05 30.3086C120.05 29.9743 119.994 29.6586 119.883 29.3615C119.771 29.0644 119.595 28.7952 119.354 28.5538C119.131 28.3124 118.834 28.0896 118.462 27.8853C118.11 27.681 117.692 27.5046 117.209 27.3561C116.726 27.189 116.169 27.0497 115.538 26.9383C114.535 26.734 113.662 26.4648 112.919 26.1305C112.177 25.7963 111.555 25.3785 111.053 24.8771C110.552 24.3757 110.181 23.8094 109.939 23.178C109.698 22.5281 109.577 21.8039 109.577 21.0055C109.577 20.2256 109.744 19.5014 110.078 18.8329C110.431 18.1644 110.905 17.5888 111.499 17.106C112.112 16.6046 112.827 16.2239 113.644 15.964C114.461 15.6854 115.343 15.5462 116.29 15.5462C117.292 15.5462 118.212 15.6761 119.047 15.9361C119.883 16.1961 120.626 16.586 121.276 17.106C121.925 17.6073 122.464 18.2294 122.891 18.9722L120.774 21.0612C120.403 20.4484 119.985 19.9377 119.521 19.5292C119.057 19.1021 118.546 18.7865 117.989 18.5822C117.432 18.3594 116.838 18.248 116.206 18.248C115.482 18.248 114.851 18.3594 114.312 18.5822C113.774 18.805 113.347 19.1207 113.031 19.5292C112.734 19.9192 112.585 20.3834 112.585 20.9219C112.585 21.3119 112.659 21.6739 112.808 22.0082C112.957 22.3239 113.179 22.6117 113.477 22.8717C113.792 23.113 114.21 23.3359 114.73 23.5401C115.25 23.7258 115.872 23.8929 116.596 24.0415C117.617 24.2643 118.527 24.5522 119.326 24.905C120.124 25.2392 120.802 25.6384 121.359 26.1027C121.916 26.5669 122.334 27.0868 122.613 27.6625C122.91 28.2381 123.058 28.8602 123.058 29.5287C123.058 30.7728 122.77 31.8498 122.195 32.7597C121.619 33.6696 120.802 34.3752 119.744 34.8765C118.685 35.3593 117.422 35.6007 115.955 35.6007Z" fill="#373541"/>
</g>
<defs>
<clipPath id="clip0_6_563">
<rect width="123.058" height="50" fill="white"/>
</clipPath>
</defs>
</svg>
