<svg width="457" height="448" viewBox="0 0 457 448" fill="none" xmlns="http://www.w3.org/2000/svg">
<path d="M275.652 28.8974C308.076 41.4567 338.289 57.0562 364.804 79.5496C392.751 103.257 418.708 129.408 433.607 162.891C449.816 199.323 462.906 240.052 453.455 278.791C443.981 317.62 411.065 344.976 382.389 372.817C354.359 400.031 325.532 427.579 288.234 439.203C250.457 450.977 209.36 450.193 171.55 438.526C134.674 427.147 102.623 403.649 77.6542 374.222C53.9552 346.293 45.7395 310.178 33.3833 275.696C20.14 238.739 -6.39718 202.42 2.37955 164.155C11.1677 125.84 51.0765 104.844 78.9327 77.1077C106.365 49.7934 127.457 11.3922 165.056 2.17779C202.531 -7.0061 239.674 14.9612 275.652 28.8974Z" fill="white"/>
<g clip-path="url(#clip0_777_406)">
<path d="M333.911 166.719C337.099 172.988 339.612 179.454 346.644 179.454C350.021 179.454 353.26 178.112 355.648 175.724C358.036 173.336 359.378 170.096 359.378 166.719C359.378 163.341 358.036 160.102 355.648 157.714C353.26 155.325 350.021 153.984 346.644 153.984C339.497 153.894 327.976 155.05 333.911 166.719Z" fill="#2F2E41"/>
<path d="M343.92 319.878L338.478 321.09L331.21 300.675L339.242 298.884L343.92 319.878Z" fill="#A0616A"/>
<path d="M346.483 324.844L328.936 328.755L328.887 328.533C328.687 327.636 328.665 326.708 328.824 325.803C328.982 324.898 329.318 324.033 329.811 323.257C330.303 322.481 330.944 321.81 331.696 321.282C332.448 320.754 333.297 320.38 334.194 320.18L334.195 320.18L344.912 317.791L346.483 324.844Z" fill="#2F2E41"/>
<path d="M360.086 327.175H354.51L351.857 305.666L360.087 305.667L360.086 327.175Z" fill="#A0616A"/>
<path d="M361.507 332.58L343.53 332.579V332.352C343.53 331.433 343.711 330.523 344.063 329.674C344.414 328.825 344.93 328.053 345.58 327.403C346.229 326.754 347.001 326.238 347.85 325.886C348.699 325.535 349.608 325.354 350.527 325.354H350.528L361.508 325.354L361.507 332.58Z" fill="#2F2E41"/>
<path d="M360.123 315.904H353.007C352.513 315.902 352.035 315.722 351.663 315.397C351.291 315.072 351.048 314.624 350.979 314.134L344.529 264.231C344.507 264.075 344.433 263.932 344.317 263.824C344.202 263.717 344.053 263.653 343.896 263.643C343.739 263.633 343.583 263.678 343.455 263.77C343.327 263.862 343.235 263.995 343.194 264.147L339.372 278.397L342.817 310.85C342.876 311.35 342.748 311.854 342.457 312.266C342.167 312.677 341.735 312.967 341.245 313.08L335.6 314.383C335.099 314.496 334.573 314.418 334.126 314.162C333.68 313.907 333.345 313.494 333.188 313.004L324.098 281.454C323.366 279.142 323.114 276.705 323.358 274.292L326.202 245.849L326.418 245.86L364.388 247.69L362.168 313.928C362.151 314.459 361.928 314.962 361.546 315.331C361.164 315.7 360.654 315.906 360.123 315.904Z" fill="#2F2E41"/>
<path d="M346.018 179.702C352.187 179.702 357.188 174.701 357.188 168.531C357.188 162.361 352.187 157.36 346.018 157.36C339.849 157.36 334.848 162.361 334.848 168.531C334.848 174.701 339.849 179.702 346.018 179.702Z" fill="#A0616A"/>
<path d="M363.538 250.753C363.501 250.753 363.464 250.753 363.427 250.75L325.569 248.715C325.256 248.698 324.952 248.61 324.678 248.457C324.405 248.303 324.171 248.09 323.993 247.832C323.815 247.574 323.699 247.278 323.654 246.968C323.609 246.658 323.635 246.342 323.731 246.044L326.727 236.738C329.935 226.762 330.483 216.12 328.317 205.866C327.75 203.183 327.762 200.41 328.352 197.732C328.942 195.054 330.097 192.532 331.74 190.336C333.355 188.171 335.415 186.375 337.78 185.069C340.145 183.764 342.762 182.978 345.455 182.765C345.641 182.75 345.827 182.737 346.014 182.726C348.863 182.557 351.714 183.027 354.359 184.101C357.004 185.175 359.376 186.826 361.302 188.933C363.227 191.04 364.659 193.55 365.491 196.281C366.323 199.012 366.535 201.894 366.112 204.717L363.472 222.443L365.577 248.542C365.6 248.824 365.564 249.107 365.472 249.374C365.379 249.642 365.233 249.887 365.041 250.094C364.85 250.302 364.617 250.468 364.359 250.581C364.1 250.695 363.82 250.753 363.538 250.753Z" fill="#CCCCCC"/>
<path d="M316.952 253.109C317.506 252.734 317.971 252.243 318.314 251.669C318.657 251.095 318.87 250.453 318.938 249.788C319.006 249.122 318.927 248.45 318.708 247.819C318.488 247.187 318.133 246.612 317.666 246.133L324.956 231.606L316.569 232.599L310.933 246.242C310.18 247.078 309.76 248.162 309.752 249.288C309.745 250.414 310.151 251.503 310.893 252.349C311.635 253.196 312.661 253.741 313.778 253.881C314.895 254.021 316.024 253.746 316.952 253.109Z" fill="#A0616A"/>
<path d="M366.993 255.477C366.51 255.014 366.134 254.452 365.892 253.829C365.65 253.206 365.547 252.537 365.591 251.87C365.635 251.203 365.825 250.553 366.147 249.967C366.469 249.381 366.916 248.873 367.455 248.479L362.696 232.938L370.798 235.319L374.076 249.711C374.679 250.662 374.912 251.801 374.731 252.912C374.55 254.023 373.968 255.029 373.095 255.74C372.222 256.451 371.119 256.816 369.994 256.768C368.87 256.719 367.802 256.26 366.993 255.477Z" fill="#A0616A"/>
<path d="M366.206 247.336C365.709 247.337 365.23 247.157 364.856 246.83C364.483 246.502 364.243 246.05 364.18 245.558L360.392 216.984L354.35 194.655C354.095 193.711 354.058 192.721 354.241 191.761C354.424 190.8 354.823 189.894 355.407 189.11C355.992 188.327 356.747 187.686 357.615 187.237C358.484 186.788 359.443 186.542 360.42 186.518C361.969 186.485 363.478 187.009 364.673 187.993C365.869 188.977 366.673 190.357 366.939 191.883L375.941 244.618C375.99 244.905 375.977 245.199 375.903 245.48C375.83 245.761 375.698 246.023 375.515 246.249C375.332 246.475 375.103 246.66 374.844 246.791C374.584 246.921 374.3 246.995 374.01 247.008L366.295 247.334C366.265 247.335 366.235 247.336 366.206 247.336Z" fill="#CCCCCC"/>
<path d="M321.011 244.126C320.864 244.126 320.718 244.111 320.575 244.08L313.023 242.47C312.739 242.409 312.471 242.289 312.237 242.116C312.003 241.944 311.808 241.724 311.666 241.47C311.523 241.217 311.437 240.936 311.411 240.647C311.386 240.357 311.423 240.066 311.519 239.791L329.206 189.302C329.724 187.843 330.748 186.618 332.091 185.848C333.434 185.077 335.008 184.813 336.529 185.102C337.489 185.289 338.393 185.692 339.174 186.28C339.956 186.867 340.593 187.625 341.038 188.496C341.484 189.366 341.726 190.326 341.746 191.304C341.766 192.281 341.563 193.251 341.154 194.138L331.455 215.171L322.957 242.683C322.831 243.1 322.573 243.466 322.222 243.726C321.872 243.986 321.447 244.126 321.011 244.126Z" fill="#CCCCCC"/>
<path d="M334.165 162.218C336.717 163.977 339.747 164.914 342.847 164.901C341.741 165.668 340.482 166.186 339.157 166.419C343.279 167.304 347.538 167.328 351.67 166.49C352.588 166.342 353.474 166.038 354.289 165.59C354.695 165.363 355.049 165.053 355.328 164.681C355.606 164.308 355.803 163.881 355.906 163.427C356.18 161.859 354.958 160.434 353.688 159.473C351.744 158.025 349.502 157.028 347.125 156.553C344.748 156.078 342.295 156.137 339.943 156.726C338.408 157.123 336.87 157.794 335.872 159.027C334.875 160.26 334.58 162.162 335.53 163.432L334.165 162.218Z" fill="#2F2E41"/>
<path d="M275.88 80H83.9657C82.9142 80.0009 81.9061 80.4191 81.1626 81.1626C80.419 81.9062 80.0009 82.9145 80 83.9661V271.047C80.0009 272.099 80.419 273.107 81.1626 273.851C81.9061 274.594 82.9142 275.013 83.9657 275.014H100.792V273.881H83.9657C83.2146 273.88 82.4944 273.581 81.9633 273.05C81.4321 272.519 81.1334 271.799 81.1325 271.047V83.9661C81.1333 83.2149 81.4321 82.4946 81.9633 81.9634C82.4944 81.4322 83.2146 81.1334 83.9657 81.1325H275.88C276.632 81.1325 277.353 81.4308 277.885 81.9621C278.417 82.4934 278.717 83.2142 278.718 83.9661V271.047C278.718 271.601 278.555 272.142 278.249 272.603C277.978 273.009 277.609 273.34 277.176 273.567C276.775 273.774 276.331 273.882 275.88 273.881H259.053V275.014H275.88C276.453 275.014 277.02 274.889 277.54 274.649C278.061 274.409 278.523 274.058 278.895 273.622C278.927 273.588 278.956 273.551 278.981 273.513C279.218 273.223 279.41 272.9 279.55 272.553C279.75 272.076 279.852 271.564 279.85 271.047V83.9661C279.849 82.9138 279.43 81.905 278.686 81.1614C277.941 80.4177 276.932 80 275.88 80Z" fill="#3F3D56"/>
<path d="M279.281 95.8978H80.5649V97.0316H279.281V95.8978Z" fill="#3F3D56"/>
<path d="M90.201 91.9067C92.0794 91.9067 93.602 90.3839 93.602 88.5053C93.602 86.6268 92.0794 85.1039 90.201 85.1039C88.3227 85.1039 86.8 86.6268 86.8 88.5053C86.8 90.3839 88.3227 91.9067 90.201 91.9067Z" fill="#3F3D56"/>
<path d="M99.9789 91.9067C101.857 91.9067 103.38 90.3839 103.38 88.5053C103.38 86.6268 101.857 85.1039 99.9789 85.1039C98.1006 85.1039 96.5779 86.6268 96.5779 88.5053C96.5779 90.3839 98.1006 91.9067 99.9789 91.9067Z" fill="#3F3D56"/>
<path d="M109.757 91.9067C111.635 91.9067 113.158 90.3839 113.158 88.5053C113.158 86.6268 111.635 85.1039 109.757 85.1039C107.878 85.1039 106.356 86.6268 106.356 88.5053C106.356 90.3839 107.878 91.9067 109.757 91.9067Z" fill="#3F3D56"/>
<path d="M227.903 122.143H131.946C130.378 122.143 128.875 121.52 127.766 120.411C126.657 119.302 126.034 117.798 126.034 116.23C126.034 114.662 126.657 113.158 127.766 112.049C128.875 110.94 130.378 110.317 131.946 110.317H227.903C229.471 110.317 230.975 110.94 232.084 112.049C233.193 113.158 233.815 114.662 233.815 116.23C233.815 117.798 233.193 119.302 232.084 120.411C230.975 121.52 229.471 122.143 227.903 122.143ZM131.946 111.227C130.619 111.227 129.347 111.754 128.409 112.692C127.471 113.63 126.944 114.903 126.944 116.23C126.944 117.557 127.471 118.829 128.409 119.768C129.347 120.706 130.619 121.233 131.946 121.233H227.903C229.23 121.233 230.503 120.706 231.441 119.768C232.379 118.829 232.906 117.557 232.906 116.23C232.906 114.903 232.379 113.63 231.441 112.692C230.503 111.754 229.23 111.227 227.903 111.227H131.946Z" fill="#3F3D56"/>
<path d="M252.234 204.738H107.616C105.566 204.735 103.601 203.92 102.152 202.47C100.702 201.021 99.8871 199.055 99.8848 197.005V150.613C99.8871 148.563 100.702 146.597 102.152 145.148C103.601 143.698 105.566 142.883 107.616 142.88H252.234C254.283 142.883 256.249 143.698 257.698 145.148C259.147 146.597 259.963 148.563 259.965 150.613V197.005C259.963 199.055 259.147 201.021 257.698 202.47C256.249 203.92 254.283 204.735 252.234 204.738ZM107.616 143.79C105.807 143.792 104.073 144.512 102.795 145.791C101.516 147.07 100.796 148.804 100.794 150.613V197.005C100.796 198.814 101.516 200.548 102.795 201.827C104.073 203.106 105.807 203.826 107.616 203.828H252.234C254.042 203.826 255.776 203.106 257.055 201.827C258.334 200.548 259.053 198.814 259.055 197.005V150.613C259.053 148.804 258.334 147.07 257.055 145.791C255.776 144.512 254.042 143.792 252.234 143.79H107.616Z" fill="#3F3D56"/>
<path d="M198.889 171.307H148.409C147.445 171.307 146.519 170.924 145.837 170.242C145.155 169.559 144.771 168.634 144.771 167.669C144.771 166.704 145.155 165.778 145.837 165.096C146.519 164.413 147.445 164.03 148.409 164.03H198.889C199.854 164.03 200.78 164.413 201.462 165.096C202.144 165.778 202.527 166.704 202.527 167.669C202.527 168.634 202.144 169.559 201.462 170.242C200.78 170.924 199.854 171.307 198.889 171.307Z" fill="#09B294"/>
<path d="M245.731 183.588H148.409C147.445 183.588 146.519 183.204 145.837 182.522C145.155 181.84 144.771 180.914 144.771 179.949C144.771 178.984 145.155 178.059 145.837 177.376C146.519 176.694 147.445 176.311 148.409 176.311H245.731C246.696 176.311 247.621 176.694 248.303 177.376C248.986 178.059 249.369 178.984 249.369 179.949C249.369 180.914 248.986 181.84 248.303 182.522C247.621 183.204 246.696 183.588 245.731 183.588Z" fill="#09B294"/>
<path d="M124.124 187.454C131.659 187.454 137.767 181.345 137.767 173.809C137.767 166.273 131.659 160.164 124.124 160.164C116.589 160.164 110.48 166.273 110.48 173.809C110.48 181.345 116.589 187.454 124.124 187.454Z" fill="#09B294"/>
<path d="M245.725 198.37H232.992C232.027 198.37 231.101 197.987 230.419 197.304C229.737 196.622 229.354 195.696 229.354 194.731C229.354 193.766 229.737 192.841 230.419 192.158C231.101 191.476 232.027 191.093 232.992 191.093H245.725C246.69 191.093 247.616 191.476 248.298 192.158C248.98 192.841 249.364 193.766 249.364 194.731C249.364 195.696 248.98 196.622 248.298 197.304C247.616 197.987 246.69 198.37 245.725 198.37Z" fill="white"/>
<path d="M245.725 198.37H232.992C232.027 198.37 231.101 197.987 230.419 197.304C229.737 196.622 229.354 195.696 229.354 194.731C229.354 193.766 229.737 192.841 230.419 192.158C231.101 191.476 232.027 191.093 232.992 191.093H245.725C246.69 191.093 247.616 191.476 248.298 192.158C248.98 192.841 249.364 193.766 249.364 194.731C249.364 195.696 248.98 196.622 248.298 197.304C247.616 197.987 246.69 198.37 245.725 198.37Z" fill="#CCCCCC"/>
<path d="M252.232 226.569H107.614C105.564 226.572 103.6 227.388 102.15 228.837C100.701 230.287 99.8857 232.252 99.8828 234.302V280.694C99.8857 282.744 100.701 284.709 102.15 286.159C103.6 287.608 105.564 288.424 107.614 288.427H252.232C254.282 288.424 256.247 287.609 257.696 286.159C259.146 284.71 259.961 282.744 259.963 280.694V234.302C259.961 232.252 259.146 230.286 257.696 228.837C256.247 227.387 254.282 226.572 252.232 226.569ZM259.053 280.694C259.052 282.503 258.333 284.238 257.054 285.517C255.775 286.796 254.041 287.515 252.232 287.517H107.614C105.805 287.515 104.072 286.795 102.793 285.516C101.514 284.237 100.795 282.503 100.792 280.694V234.302C100.795 232.493 101.514 230.759 102.793 229.48C104.072 228.201 105.805 227.481 107.614 227.479H252.232C254.041 227.481 255.775 228.2 257.054 229.479C258.333 230.758 259.052 232.493 259.053 234.302V280.694Z" fill="#3F3D56"/>
<path d="M198.889 254.996H148.409C147.445 254.996 146.519 254.613 145.837 253.931C145.155 253.248 144.771 252.323 144.771 251.358C144.771 250.393 145.155 249.467 145.837 248.785C146.519 248.102 147.445 247.719 148.409 247.719H198.889C199.854 247.719 200.78 248.102 201.462 248.785C202.144 249.467 202.527 250.393 202.527 251.358C202.527 252.323 202.144 253.248 201.462 253.931C200.78 254.613 199.854 254.996 198.889 254.996Z" fill="#09B294"/>
<path d="M245.731 267.277H148.409C147.445 267.277 146.519 266.894 145.837 266.211C145.155 265.529 144.771 264.603 144.771 263.638C144.771 262.673 145.155 261.748 145.837 261.065C146.519 260.383 147.445 260 148.409 260H245.731C246.696 260 247.621 260.383 248.303 261.065C248.986 261.748 249.369 262.673 249.369 263.638C249.369 264.603 248.986 265.529 248.303 266.211C247.621 266.894 246.696 267.277 245.731 267.277Z" fill="#09B294"/>
<path d="M124.124 271.143C131.659 271.143 137.767 265.034 137.767 257.498C137.767 249.962 131.659 243.853 124.124 243.853C116.589 243.853 110.48 249.962 110.48 257.498C110.48 265.034 116.589 271.143 124.124 271.143Z" fill="#09B294"/>
<path d="M245.725 282.059H232.992C232.027 282.059 231.101 281.676 230.419 280.993C229.737 280.311 229.354 279.385 229.354 278.42C229.354 277.455 229.737 276.53 230.419 275.847C231.101 275.165 232.027 274.782 232.992 274.782H245.725C246.69 274.782 247.616 275.165 248.298 275.847C248.98 276.53 249.364 277.455 249.364 278.42C249.364 279.385 248.98 280.311 248.298 280.993C247.616 281.676 246.69 282.059 245.725 282.059Z" fill="#CCCCCC"/>
<path d="M377.545 333H313.877C313.756 333 313.641 332.952 313.555 332.867C313.47 332.781 313.422 332.666 313.422 332.545C313.422 332.425 313.47 332.309 313.555 332.224C313.641 332.138 313.756 332.09 313.877 332.09H377.545C377.666 332.09 377.781 332.138 377.867 332.224C377.952 332.309 378 332.425 378 332.545C378 332.666 377.952 332.781 377.867 332.867C377.781 332.952 377.666 333 377.545 333Z" fill="#3F3D56"/>
</g>
<defs>
<clipPath id="clip0_777_406">
<rect width="298" height="253" fill="white" transform="translate(80 80)"/>
</clipPath>
</defs>
</svg>
